<svg xmlns="http://www.w3.org/2000/svg" width="36" height="36" viewBox="0 0 36 36">
    <g opacity="0.5" transform="translate(-214 -1245)">
        <circle cx="18" cy="18" r="18" transform="translate(214 1245)"/>
        <path fill="#fff" d="M1628.531 311.116a8.484 8.484 0 0 1-1.193 1.35c-.484.44-.4.739-.445 1.339a10.554 10.554 0 0 1-.553 2.631 10.011 10.011 0 0 1-2.978 4.328 10.277 10.277 0 0 1-11.786.678 6.9 6.9 0 0 0 5.151-1.434 3.458 3.458 0 0 1-3.268-2.44 2.653 2.653 0 0 0 1.529-.02c-1.262-.4-2.745-1.012-2.745-3.44a2.967 2.967 0 0 0 1.572.416 3.5 3.5 0 0 1-1.065-4.629c1.094 1.632 5.135 3.921 6.974 3.518a3.585 3.585 0 0 1 2.321-3.881 3.885 3.885 0 0 1 2.748.064 3.047 3.047 0 0 1 .984.639.272.272 0 0 0 .141.093.249.249 0 0 0 .12-.006 12.286 12.286 0 0 0 1.91-.775 3.433 3.433 0 0 1-1.482 1.926 15.51 15.51 0 0 0 1.785-.556.348.348 0 0 1 .233-.03c.09.028.13.113.047.229z" transform="translate(-1387.576 946.688)"/>
    </g>
</svg>
