<svg xmlns="http://www.w3.org/2000/svg" width="260.08" height="260.674" viewBox="0 0 260.08 260.674">
    <defs>
        <style>
            .cls-3{fill:#fff}.cls-4{fill:#515151}.cls-5{fill:#00a4ff}
        </style>
    </defs>
    <g id="icon" transform="translate(-170 -588)">
        <circle id="타원_8" cx="115" cy="115" r="115" fill="#edf2f8" transform="translate(170 588)"/>
        <g id="그룹_36" transform="translate(-667.958 -530.315)">
            <g id="그룹_35" transform="translate(959.756 1255.511)">
                <g id="그룹_31" transform="translate(0 21.904)">
                    <path id="패스_41" d="M965.182 1297.353a10.4 10.4 0 1 1 14.2 3.807 10.4 10.4 0 0 1-14.2-3.807z" class="cls-3" transform="translate(-959.792 -1277.752)"/>
                    <path id="패스_42" d="M974.2 1306.555a14.4 14.4 0 1 1 7.189-1.931 14.448 14.448 0 0 1-7.189 1.931zm-.022-20.8a6.4 6.4 0 1 0 5.553 3.2 6.391 6.391 0 0 0-5.555-3.203z" class="cls-4" transform="translate(-959.792 -1277.752)"/>
                </g>
                <g id="그룹_34" transform="translate(39.012)">
                    <g id="그룹_32" transform="translate(0 43.806)">
                        <path id="패스_43" d="M1004.194 1319.254a10.4 10.4 0 1 1 14.2 3.806 10.4 10.4 0 0 1-14.2-3.806z" class="cls-3" transform="translate(-998.804 -1299.654)"/>
                        <path id="패스_44" d="M1013.21 1328.455a14.4 14.4 0 1 1 12.46-21.6 14.4 14.4 0 0 1-12.46 21.6zm-.02-20.8a6.4 6.4 0 1 0 5.552 3.2 6.391 6.391 0 0 0-5.552-3.201z" class="cls-4" transform="translate(-998.804 -1299.654)"/>
                    </g>
                    <g id="그룹_33" transform="translate(0.001)">
                        <path id="패스_45" d="M1004.194 1275.449a10.4 10.4 0 1 1 14.2 3.807 10.4 10.4 0 0 1-14.2-3.807z" class="cls-3" transform="translate(-998.805 -1255.848)"/>
                        <path id="패스_46" d="M1013.21 1284.65a14.4 14.4 0 1 1 7.189-1.93 14.449 14.449 0 0 1-7.189 1.93zm-.02-20.8a6.4 6.4 0 1 0 5.551 3.2 6.394 6.394 0 0 0-5.551-3.202z" class="cls-4" transform="translate(-998.805 -1255.848)"/>
                    </g>
                </g>
            </g>
            <g id="그룹_102" transform="translate(-90.041 533.963)">
                <g id="그룹_96">
                    <g id="그룹_84">
                        <g id="그룹_78">
                            <path id="패스_67" d="M1090.039 762.189h-86.7a4 4 0 1 1 0-8h86.7a4 4 0 0 1 0 8z" class="cls-4"/>
                        </g>
                        <g id="그룹_79">
                            <circle id="타원_9" cx="10.399" cy="10.399" r="10.399" class="cls-5" transform="translate(995.999 747.79)"/>
                            <path id="패스_68" d="M1006.4 772.588a14.4 14.4 0 1 1 14.4-14.4 14.415 14.415 0 0 1-14.4 14.4zm0-20.8a6.4 6.4 0 1 0 6.4 6.4 6.406 6.406 0 0 0-6.4-6.399z" class="cls-4"/>
                        </g>
                        <g id="그룹_80">
                            <path id="패스_69" d="M1090.036 762.189a4 4 0 0 1-3.46-6l43.35-75.084a4 4 0 1 1 6.928 4l-43.35 75.084a4 4 0 0 1-3.468 2z" class="cls-4"/>
                        </g>
                        <g id="그룹_81">
                            <path id="패스_70" d="M1140.867 690.952a10.4 10.4 0 1 1-3.807-14.205 10.4 10.4 0 0 1 3.807 14.205z" class="cls-5"/>
                            <path id="패스_71" d="M1131.85 700.155a14.4 14.4 0 1 1 12.48-7.2 14.394 14.394 0 0 1-12.48 7.2zm.02-20.8a6.426 6.426 0 0 0-5.551 3.2 6.4 6.4 0 0 0 5.531 9.6 6.4 6.4 0 0 0 .02-12.8z" class="cls-4"/>
                        </g>
                        <g id="그룹_82">
                            <path id="패스_72" d="M1133.394 837.275a4 4 0 0 1-3.468-2l-43.35-75.084a4 4 0 0 1 6.929-4l43.349 75.084a4 4 0 0 1-3.46 6z" class="cls-4"/>
                        </g>
                        <g id="그룹_83">
                            <path id="패스_73" d="M1122.855 835.825a10.4 10.4 0 1 1 14.2 3.806 10.4 10.4 0 0 1-14.2-3.806z" class="cls-5"/>
                            <path id="패스_74" d="M1131.87 845.026a14.4 14.4 0 1 1 7.189-1.931 14.45 14.45 0 0 1-7.189 1.931zm-.02-20.8a6.4 6.4 0 1 0 5.553 3.2 6.407 6.407 0 0 0-5.553-3.202z" class="cls-4"/>
                        </g>
                    </g>
                    <g id="그룹_86">
                        <g id="그룹_85">
                            <path id="패스_75" d="M1090.039 700.845a57.345 57.345 0 1 1-57.344 57.345 57.345 57.345 0 0 1 57.344-57.345z" class="cls-5"/>
                            <path id="패스_76" d="M1090.039 819.534a61.345 61.345 0 1 1 61.344-61.344 61.414 61.414 0 0 1-61.344 61.344zm0-114.689a53.345 53.345 0 1 0 53.344 53.345 53.405 53.405 0 0 0-53.344-53.345z" class="cls-4"/>
                        </g>
                    </g>
                    <g id="그룹_89">
                        <g id="그룹_87">
                            <path id="패스_77" d="M1046.685 837.276a4 4 0 0 1-3.46-6l23-39.833a4 4 0 0 1 6.928 4l-23 39.833a4 4 0 0 1-3.468 2z" class="cls-4"/>
                        </g>
                        <g id="그룹_88">
                            <path id="패스_78" d="M1039.212 825.425a10.4 10.4 0 1 1 3.806 14.2 10.4 10.4 0 0 1-3.806-14.2z" class="cls-3"/>
                            <path id="패스_79" d="M1048.209 845.025a14.4 14.4 0 1 1 12.479-7.2 14.4 14.4 0 0 1-12.479 7.2zm.02-20.8a6.432 6.432 0 0 0-5.553 3.2 6.4 6.4 0 1 0 5.553-3.2z" class="cls-4"/>
                        </g>
                    </g>
                    <g id="그룹_92">
                        <g id="그룹_90">
                            <path id="패스_80" d="M1069.689 726.939a4 4 0 0 1-3.468-2l-23-39.834a4 4 0 0 1 6.928-4l23 39.834a4 4 0 0 1-3.46 6z" class="cls-4"/>
                        </g>
                        <g id="그룹_91">
                            <path id="패스_81" d="M1057.224 680.553a10.4 10.4 0 1 1-14.2-3.8 10.4 10.4 0 0 1 14.2 3.8z" class="cls-3"/>
                            <path id="패스_82" d="M1048.23 700.155a14.45 14.45 0 0 1-12.481-7.2 14.4 14.4 0 0 1 12.46-21.6 14.4 14.4 0 0 1 .021 28.8zm-.021-20.8a6.4 6.4 0 1 0 5.551 3.2 6.383 6.383 0 0 0-5.551-3.202z" class="cls-4"/>
                        </g>
                    </g>
                    <g id="그룹_95">
                        <g id="그룹_93">
                            <path id="패스_83" d="M1130.745 762.188a4 4 0 0 1 0-8h46a4 4 0 0 1 0 8z" class="cls-4"/>
                        </g>
                        <g id="그룹_94">
                            <path id="패스_84" d="M1173.681 768.588a10.4 10.4 0 1 1 10.4-10.4 10.4 10.4 0 0 1-10.4 10.4z" class="cls-3"/>
                            <path id="패스_85" d="M1173.682 772.588a14.4 14.4 0 1 1 10.181-4.217 14.415 14.415 0 0 1-10.182 4.217zm0-20.8a6.4 6.4 0 1 0 6.4 6.4 6.406 6.406 0 0 0-6.399-6.397z" class="cls-4"/>
                        </g>
                    </g>
                </g>
                <g id="그룹_101">
                    <g id="그룹_97">
                        <path id="패스_86" d="M1055.222 763.391a10.4 10.4 0 1 1 14.2 3.807 10.4 10.4 0 0 1-14.2-3.807z" class="cls-3"/>
                        <path id="패스_87" d="M1064.238 772.592a14.4 14.4 0 1 1 7.189-1.931 14.45 14.45 0 0 1-7.189 1.931zm-.021-20.8a6.4 6.4 0 1 0 5.552 3.2 6.379 6.379 0 0 0-5.552-3.203z" class="cls-4"/>
                    </g>
                    <g id="그룹_100">
                        <g id="그룹_98">
                            <path id="패스_88" d="M1094.235 785.291a10.4 10.4 0 1 1 14.2 3.807 10.4 10.4 0 0 1-14.2-3.807z" class="cls-3"/>
                            <path id="패스_89" d="M1103.25 794.493a14.406 14.406 0 1 1 7.188-1.93 14.447 14.447 0 0 1-7.188 1.93zm-.019-20.8a6.4 6.4 0 1 0 5.552 3.2 6.4 6.4 0 0 0-5.552-3.201z" class="cls-4"/>
                        </g>
                        <g id="그룹_99">
                            <path id="패스_90" d="M1094.235 741.487a10.4 10.4 0 1 1 14.2 3.806 10.4 10.4 0 0 1-14.2-3.806z" class="cls-3"/>
                            <path id="패스_91" d="M1103.25 750.688a14.4 14.4 0 1 1 7.19-1.931 14.449 14.449 0 0 1-7.19 1.931zm-.02-20.8a6.4 6.4 0 1 0 5.552 3.2 6.4 6.4 0 0 0-5.552-3.203z" class="cls-4"/>
                        </g>
                    </g>
                </g>
            </g>
        </g>
    </g>
</svg>
