<svg xmlns="http://www.w3.org/2000/svg" width="260" height="260" viewBox="0 0 260 260">
    <defs>
        <style>
            .cls-3{fill:#fff}.cls-4{fill:#515151}.cls-5{fill:#00a4ff}
        </style>
    </defs>
    <g id="icon" transform="translate(-170 -588)">
        <circle id="타원_8" cx="115" cy="115" r="115" fill="#edf2f8" transform="translate(170 588)"/>
        <g id="그룹_145" transform="translate(-269.17 63.502)">
            <g id="그룹_140" transform="translate(566.626 611.498)">
                <g id="그룹_137" transform="translate(0 46.955)">
                    <path id="사각형_9" d="M0 0H16.691V48.198H0z" class="cls-3" transform="translate(3.334 3.334)"/>
                    <path id="패스_112" d="M595.939 722.706h-16.691a3.334 3.334 0 0 1-3.334-3.334v-48.2a3.334 3.334 0 0 1 3.334-3.334h16.691a3.334 3.334 0 0 1 3.334 3.334v48.2a3.334 3.334 0 0 1-3.334 3.334zm-13.357-6.667H592.6v-41.531h-10.019z" class="cls-4" transform="translate(-575.914 -667.841)"/>
                </g>
                <g id="그룹_138" transform="translate(52.004)">
                    <path id="패스_113" d="M679.8 638.775L661.056 615.5l-18.741 23.276h10.4v82.131H669.4v-82.132z" class="cls-5" transform="translate(-638.981 -612.165)"/>
                    <path id="패스_114" d="M668.735 723.573h-16.691a3.334 3.334 0 0 1-3.333-3.334v-78.8h-7.062a3.334 3.334 0 0 1-2.6-5.424l18.741-23.276a3.333 3.333 0 0 1 5.194 0l18.741 23.276a3.334 3.334 0 0 1-2.6 5.424h-7.062v78.8a3.334 3.334 0 0 1-3.328 3.334zm-13.357-6.667H665.4v-78.8a3.334 3.334 0 0 1 3.334-3.333h3.432l-11.776-14.626-11.777 14.628h3.432a3.334 3.334 0 0 1 3.334 3.333z" class="cls-4" transform="translate(-638.315 -611.498)"/>
                </g>
                <g id="그룹_139" transform="translate(31.2 36.347)">
                    <path id="사각형_10" d="M0 0H16.688V58.806H0z" class="cls-3" transform="translate(3.334 3.333)"/>
                    <path id="패스_115" d="M633.374 720.585h-16.688a3.334 3.334 0 0 1-3.334-3.334v-58.805a3.334 3.334 0 0 1 3.334-3.333h16.688a3.334 3.334 0 0 1 3.333 3.333v58.806a3.334 3.334 0 0 1-3.333 3.333zm-13.355-6.667h10.021v-52.139h-10.021z" class="cls-4" transform="translate(-613.352 -655.112)"/>
                </g>
            </g>
            <g id="그룹_144" transform="translate(520.17 686.778)">
                <g id="그룹_141" transform="translate(16.485 0)">
                    <path id="패스_116" d="M669.737 715.69a9.983 9.983 0 0 0-14.115.272l-26.334 23.761a9.039 9.039 0 0 1-8.272 1.475c-6.82-2.572-13.532-5.49-20.288-8.23-1-.407-2.019-.8-3.038-1.2l23.59-4.725a10.711 10.711 0 1 0-4.206-21.005l-50.66 10.148c-1.8.361-12.36 4.384-15.241 7.659-5.086 5.784-7.222 13.516-7.222 21.11 0 18.551 7.417 23.076 18.178 24.971a.858.858 0 0 1 .19.033l60.514 10.653a11.221 11.221 0 0 0 8.047-3.489l39.131-47.323a9.98 9.98 0 0 0-.274-14.11z" class="cls-3" transform="translate(-540.617 -702.495)"/>
                    <path id="패스_117" d="M622.493 783.289c-.167 0-.332 0-.494-.013a3.241 3.241 0 0 1-.411-.047l-60.513-10.653-.1-.018-.063-.01c-10.9-1.918-20.963-6.665-20.963-28.258 0-9.127 2.86-17.406 8.052-23.311 3.689-4.194 15.228-8.352 17.089-8.726l50.66-10.147a14.044 14.044 0 1 1 5.516 27.541l-12.722 2.549c4.254 1.766 8.641 3.582 12.979 5.218a4.213 4.213 0 0 0 1.432.221 5.775 5.775 0 0 0 3.479-1.093l26.206-23.647a13.316 13.316 0 0 1 19.2 18.456l-39.057 47.232a14.592 14.592 0 0 1-10.29 4.706zm-60.123-17.254l60.13 10.587a8.074 8.074 0 0 0 5.168-2.32l39.106-47.29c.053-.064.108-.127.167-.187a6.649 6.649 0 0 0-9.585-9.218c-.054.057-.111.111-.169.163l-26.334 23.762a12.267 12.267 0 0 1-7.9 2.768 10.7 10.7 0 0 1-3.784-.649c-4.6-1.735-9.2-3.645-13.649-5.493-2.238-.929-4.474-1.858-6.715-2.767-.988-.4-1.988-.792-2.991-1.181a3.333 3.333 0 0 1 .551-6.376l23.591-4.725a7.377 7.377 0 1 0-2.9-14.468L566.4 718.789c-1.719.369-11.272 4.181-13.392 6.592-4.122 4.687-6.392 11.4-6.392 18.909 0 17.487 6.938 20.185 15.338 21.672.118.015.257.038.416.073z" class="cls-4" transform="translate(-539.951 -701.829)"/>
                </g>
                <g id="그룹_143" transform="translate(0 0.12)">
                    <g id="그룹_142">
                        <path id="사각형_11" d="M7.939 0h18.375a7.942 7.942 0 0 1 7.942 7.942v58.044a7.94 7.94 0 0 1-7.94 7.94H7.938A7.938 7.938 0 0 1 0 65.989V7.939A7.939 7.939 0 0 1 7.939 0z" class="cls-5" transform="translate(3.334 3.334)"/>
                        <path id="패스_118" d="M551.141 782.567H530.12a9.961 9.961 0 0 1-9.95-9.95v-60.694a9.961 9.961 0 0 1 9.95-9.95h21.024a9.962 9.962 0 0 1 9.951 9.951v60.693a9.963 9.963 0 0 1-9.954 9.95zM530.12 708.64a3.286 3.286 0 0 0-3.283 3.283v60.694a3.286 3.286 0 0 0 3.283 3.283h21.021a3.288 3.288 0 0 0 3.286-3.283v-60.693a3.288 3.288 0 0 0-3.284-3.284z" class="cls-4" transform="translate(-520.17 -701.973)"/>
                    </g>
                    <path id="패스_119" d="M547.512 779.808a3.487 3.487 0 1 1-3.486-3.489 3.483 3.483 0 0 1 3.486 3.489z" class="cls-4" transform="translate(-523.563 -714.36)"/>
                </g>
            </g>
        </g>
    </g>
</svg>
