<svg xmlns="http://www.w3.org/2000/svg" width="225.292" height="40" viewBox="0 0 225.292 40">
    <defs>
        <style>
            .cls-1{fill:#40a2f5}.cls-4{fill:#fcfcfc;stroke:#fff;stroke-miterlimit:10;stroke-width:.5px}
        </style>
    </defs>
    <g id="logo" transform="translate(-490.942 -44.311)">
        <g id="그룹_7" transform="translate(490.942 44.311)">
            <g id="그룹_6">
                <g id="그룹_1" transform="translate(45.132 24.743)">
                    <path id="패스_1" d="M519.73 66.916L516.818 64a19.838 19.838 0 0 1-2.183 6.413l.8.8a3.039 3.039 0 1 0 4.3-4.3z" class="cls-1" transform="translate(-514.635 -64)"/>
                </g>
                <g id="그룹_3" transform="translate(2.439)">
                    <g id="그룹_2">
                        <path id="패스_2" d="M506.455 64.377a.419.419 0 0 0 .3-.121.427.427 0 0 0 0-.6l-5.207-5.22a8.237 8.237 0 0 0-.6.609l5.211 5.209a.411.411 0 0 0 .296.123z" class="cls-1" transform="translate(-484.259 -44.764)"/>
                        <path id="패스_3" d="M492.708 56.49a.422.422 0 0 0 0 .845h4.945c.152-.286.31-.568.479-.845z" class="cls-1" transform="translate(-492.287 -46.751)"/>
                        <path id="패스_4" d="M506.183 60.024l-3.356-3.365a.411.411 0 0 0-.321-.169h-6.781c-.169.277-.326.558-.479.845h7.041l3.3 3.3a8.249 8.249 0 0 1 .596-.611z" class="cls-1" transform="translate(-489.881 -46.686)"/>
                        <path id="패스_5" fill="#3ba0ff" d="M513.817 51.48A19.515 19.515 0 0 0 501.8 55.6h2.231a5.912 5.912 0 0 1 4.549 2.141l4.871 4.928c.121 0 .242-.01.366-.01a8.817 8.817 0 1 1-8.716 8.816v-.132l-3.6-3.639H494.4a20.36 20.36 0 0 0-.355 3.771 19.77 19.77 0 1 0 19.771-20z" transform="translate(-490.857 -51.48)"/>
                    </g>
                </g>
                <g id="그룹_4" transform="translate(0 7.219)">
                    <path id="패스_6" fill="#40a2f5" fill-rule="evenodd" d="M516.921 64.568l-8.375-8.373a3.015 3.015 0 0 0-2.359-1.148h-12.2a3.039 3.039 0 1 0 0 6.078h10.9l7.739 7.739a3.038 3.038 0 0 0 4.3-4.3z" transform="translate(-490.942 -55.047)"/>
                </g>
                <g id="그룹_5" transform="translate(25.398 25.666)"/>
            </g>
        </g>
        <g id="그룹_8" transform="translate(551.823 49.692)">
            <path id="패스_8" d="M536.791 77.908c-6.627 0-11.245-3.825-11.245-11.7v-3.2c0-7.874 4.618-11.7 11.245-11.7h1.423c6.192 0 10.52 2.97 10.52 9.842h-4.91c0-3.416-2.12-5.014-5.61-5.014h-1.423c-3.928 0-6.338 2.455-6.338 6.872v3.2c0 4.424 2.409 6.873 6.338 6.873h1.423c3.49 0 5.61-1.6 5.61-5.017h4.91c0 6.876-4.328 9.843-10.52 9.843z" class="cls-4" transform="translate(-525.546 -51.311)"/>
            <path id="패스_9" d="M558.411 76.952a8.133 8.133 0 0 1-.439-2.329c-1.047 2.022-2.927 2.939-5.4 2.939-4.33 0-7.9-1.414-7.9-6.376v-.46c0-5.272 3.49-6.835 9.27-6.835h1.048a16.313 16.313 0 0 0 2.989-.156v-.878c0-2.214-1.712-3.016-4.472-3.016-1.835 0-3.9 1.029-3.9 3.208h-4.45c0-6 4.244-7.679 8.346-7.679 4.33 0 8.922 1.032 8.922 7.486v10.2a12.352 12.352 0 0 0 .523 3.9zm-.439-9.4a22.541 22.541 0 0 1-3.458.346h-.171l-.7.039c-2.767.153-4.537 1.069-4.537 2.787v.46c0 1.3.958 2.175 3.46 2.175 3.055 0 5.4-2.026 5.4-4.087z" class="cls-4" transform="translate(-519.875 -50.658)"/>
            <path id="패스_10" d="M561.713 76.952v-20.74h4.676v3.019c.93-2.294 2.533-3.861 5.233-3.861a3.093 3.093 0 0 1 1.222.269V61.1a5.473 5.473 0 0 0-1.571-.265c-3.048 0-4.883 3.169-4.883 6.453v9.664z" class="cls-4" transform="translate(-514.738 -50.658)"/>
            <path id="패스_11" d="M593.4 76.952V65.341c0-2.52-.145-4.891-2.639-4.891-2.243 0-3.173 2.407-3.173 5.541v10.961h-4.679V65.033c0-2.288-.64-4.583-2.76-4.583s-3.025 2.674-3.025 5.959v10.543h-4.677v-20.74h4.677v3.019c.991-2.752 2.5-3.861 4.772-3.861 1.975 0 3.831 1.53 4.353 4.127.99-3.019 3.229-4.127 6.078-4.127 4.913 0 5.75 4.7 5.75 8.365v13.217z" class="cls-4" transform="translate(-511.75 -50.658)"/>
            <path id="패스_12" d="M599.038 68.435c.059 2.709 1.887 4.431 4.824 4.431 2.556 0 4.186-.764 4.852-3.172h4.68c-.959 6.148-3.779 7.868-9.532 7.868-6.393 0-9.5-4.123-9.5-10.162v-2.06c0-6.036 3.282-9.971 9.5-9.971s9.5 3.935 9.5 9.971v3.094zm9.649-4.508c-.145-2.253-2.006-3.855-4.825-3.855s-4.68 1.6-4.824 3.855z" class="cls-4" transform="translate(-505.151 -50.658)"/>
            <path id="패스_13" d="M611.749 76.952v-20.74h4.68v3.019c.931-2.294 2.526-3.861 5.233-3.861a3.093 3.093 0 0 1 1.221.269V61.1a5.465 5.465 0 0 0-1.571-.265c-3.051 0-4.883 3.169-4.883 6.453v9.664z" class="cls-4" transform="translate(-499.786 -50.658)"/>
            <path id="패스_14" d="M635.134 64.195c0-3.207-2.034-4.123-4.54-4.123s-4.528 1.64-4.528 5.3v2.178c0 3.668 2.033 5.312 4.528 5.312s4.54-.919 4.54-4.129h4.677c0 6.534-3.779 8.825-9.218 8.825-5.6 0-9.207-3.171-9.207-10.009v-2.173c0-6.834 3.6-10.006 9.207-10.006 5.439 0 9.218 2.292 9.218 8.825z" class="cls-4" transform="translate(-497.925 -50.658)"/>
            <path id="패스_15" d="M642.143 68.435c.054 2.709 1.887 4.431 4.827 4.431 2.556 0 4.185-.764 4.851-3.172h4.679c-.955 6.148-3.779 7.868-9.526 7.868-6.4 0-9.511-4.123-9.511-10.162v-2.06c0-6.036 3.286-9.971 9.511-9.971s9.5 3.935 9.5 9.971v3.094zm9.645-4.508c-.144-2.253-2-3.855-4.819-3.855s-4.685 1.6-4.827 3.855z" class="cls-4" transform="translate(-492.376 -50.658)"/>
        </g>
    </g>
</svg>
