<svg width="96" height="26" viewBox="0 0 96 26" xmlns="http://www.w3.org/2000/svg" xmlns:xlink="http://www.w3.org/1999/xlink">
    <defs>
        <path id="h41lav045a" d="M0 0h7.486v8.896H0z"/>
        <path id="pyac160poc" d="M0 26h96V0H0z"/>
    </defs>
    <g fill="none" fill-rule="evenodd">
        <path d="M15.218 12.081c-.026-2.87 2.316-4.266 2.423-4.331-1.326-1.962-3.382-2.23-4.105-2.252-1.727-.182-3.4 1.049-4.28 1.049-.899 0-2.252-1.03-3.71-1-1.88.03-3.638 1.133-4.602 2.845-1.988 3.494-.505 8.627 1.402 11.452.952 1.384 2.065 2.929 3.524 2.872 1.426-.06 1.96-.922 3.682-.922 1.704 0 2.204.922 3.69.887 1.532-.024 2.496-1.388 3.416-2.784 1.102-1.584 1.545-3.146 1.56-3.227-.034-.012-2.97-1.148-3-4.589M12.409 3.64c.766-.973 1.291-2.297 1.146-3.64-1.111.05-2.5.779-3.298 1.73-.707.84-1.341 2.216-1.177 3.508 1.248.095 2.527-.638 3.329-1.598M32.447 17.576l-.987-3.093c-.105-.315-.302-1.06-.59-2.232h-.035a85.947 85.947 0 0 1-.555 2.232l-.97 3.093h3.137zm3.414 4.942h-1.993l-1.092-3.48H28.98l-1.039 3.48H26l3.76-11.849h2.323l3.778 11.849zM43.625 18.21c0-.831-.183-1.517-.553-2.057-.406-.563-.949-.843-1.63-.843-.461 0-.88.156-1.256.464a2.165 2.165 0 0 0-.737 1.224 2.57 2.57 0 0 0-.088.579v1.424c0 .622.19 1.147.564 1.575.376.427.864.641 1.465.641.704 0 1.255-.275 1.646-.826.394-.55.59-1.278.59-2.181m1.908-.07c0 1.454-.39 2.602-1.162 3.447-.695.75-1.556 1.124-2.582 1.124-1.11 0-1.909-.403-2.393-1.213h-.036v4.501h-1.87v-9.213c0-.913-.024-1.85-.071-2.813h1.647l.104 1.354h.034c.626-1.02 1.573-1.53 2.844-1.53.994 0 1.823.4 2.486 1.195.665.798.999 1.848.999 3.148M53.314 18.21c0-.831-.184-1.517-.554-2.057-.407-.563-.948-.843-1.63-.843-.462 0-.88.156-1.257.464-.375.312-.62.72-.736 1.224a2.554 2.554 0 0 0-.087.579v1.424c0 .622.189 1.147.562 1.575.375.427.864.641 1.466.641.705 0 1.255-.275 1.645-.826.394-.55.591-1.278.591-2.181m1.905-.07c0 1.454-.385 2.602-1.16 3.447-.694.75-1.555 1.124-2.584 1.124-1.108 0-1.904-.403-2.39-1.213h-.035v4.501h-1.872v-9.213c0-.913-.024-1.85-.069-2.813h1.646l.105 1.354h.035c.624-1.02 1.57-1.53 2.841-1.53.993 0 1.824.4 2.488 1.195.663.798.995 1.848.995 3.148M66.052 19.196c0 1.007-.344 1.828-1.037 2.46-.76.693-1.82 1.039-3.18 1.039-1.259 0-2.267-.248-3.029-.74l.434-1.582a5.064 5.064 0 0 0 2.705.756c.704 0 1.253-.162 1.647-.484.393-.321.588-.756.588-1.294 0-.483-.16-.888-.484-1.216-.323-.327-.86-.634-1.613-.917-2.044-.773-3.066-1.908-3.066-3.396 0-.975.358-1.775 1.075-2.397.714-.621 1.668-.933 2.86-.933 1.062 0 1.945.187 2.649.56l-.467 1.55c-.658-.364-1.403-.544-2.235-.544-.658 0-1.173.163-1.543.49-.31.293-.467.651-.467 1.074 0 .468.178.856.536 1.159.313.284.878.586 1.7.915 1.005.41 1.745.891 2.218 1.442.472.552.71 1.238.71 2.058M72.24 15.398h-2.062v4.15c0 1.055.363 1.58 1.09 1.58.336 0 .615-.027.834-.085l.05 1.441c-.368.139-.854.21-1.455.21-.738 0-1.316-.229-1.734-.685-.415-.458-.624-1.226-.624-2.304v-4.307H67.11v-1.424h1.23v-1.566l1.838-.56v2.126h2.062v1.424zM79.605 18.237c0-.787-.166-1.464-.501-2.027-.394-.684-.954-1.024-1.682-1.024-.752 0-1.322.34-1.715 1.024-.335.563-.503 1.25-.503 2.064 0 .788.168 1.463.503 2.026.405.683.972 1.024 1.7 1.024.715 0 1.275-.348 1.68-1.042.345-.575.518-1.26.518-2.045m1.943-.061c0 1.313-.37 2.39-1.11 3.235-.774.868-1.804 1.301-3.085 1.301-1.238 0-2.221-.417-2.954-1.248-.735-.833-1.1-1.882-1.1-3.148 0-1.324.375-2.41 1.134-3.25.756-.846 1.776-1.269 3.058-1.269 1.236 0 2.23.416 2.982 1.25.717.809 1.075 1.85 1.075 3.129M87.632 15.643a3.185 3.185 0 0 0-.592-.053c-.658 0-1.166.253-1.526.756-.31.446-.467 1.01-.467 1.689v4.484h-1.87l.017-5.855c0-.986-.024-1.882-.07-2.69h1.63l.069 1.634h.05c.199-.561.51-1.014.937-1.354a2.248 2.248 0 0 1 1.353-.458c.173 0 .329.013.469.037v1.81z" fill="#FEFEFE"/>
        <g transform="translate(88.514 13.78)">
            <mask id="1o6n1d5tcb" fill="#fff">
                <use xlink:href="#h41lav045a"/>
            </mask>
            <path d="M5.702 3.568c.012-.56-.11-1.048-.363-1.458-.325-.528-.822-.791-1.491-.791-.614 0-1.11.256-1.492.773-.31.412-.496.903-.553 1.476h3.9zm1.784.493c0 .34-.02.628-.067.861H1.803c.022.845.294 1.489.816 1.936.472.396 1.085.596 1.835.596.832 0 1.589-.133 2.272-.405l.293 1.319c-.796.352-1.738.528-2.824.528-1.307 0-2.332-.39-3.077-1.17C.373 6.948 0 5.901 0 4.59 0 3.3.346 2.225 1.04 1.371 1.769.458 2.75 0 3.987 0c1.213 0 2.133.458 2.757 1.371.496.726.743 1.624.743 2.69z" fill="#FEFEFE" mask="url(#1o6n1d5tcb)"/>
        </g>
        <path d="M30.857 3.402c0-.68-.176-1.2-.532-1.564-.354-.363-.871-.543-1.554-.543-.29 0-.538.02-.742.061v4.352c.115.018.322.027.624.027.704 0 1.245-.198 1.629-.597.383-.396.575-.975.575-1.736m.972-.026c0 1.049-.31 1.838-.93 2.367-.574.49-1.387.735-2.443.735-.522 0-.971-.024-1.346-.068V.68c.489-.08 1.016-.118 1.585-.118 1.004 0 1.763.22 2.273.664.574.5.86 1.217.86 2.15M36.016 4.322c0-.388-.081-.719-.247-.994-.192-.337-.467-.504-.825-.504-.37 0-.65.167-.843.504-.165.275-.248.613-.248 1.012 0 .387.083.718.248.996.198.336.477.503.835.503.35 0 .625-.17.824-.512.171-.283.256-.617.256-1.005m.956-.03c0 .645-.183 1.175-.546 1.59-.38.427-.885.639-1.516.639-.607 0-1.091-.203-1.452-.614-.362-.408-.54-.924-.54-1.546 0-.651.184-1.182.557-1.598.372-.414.873-.62 1.502-.62.608 0 1.096.203 1.466.611.35.398.529.91.529 1.538M43.867 2.228l-1.295 4.2h-.842l-.537-1.824a13.605 13.605 0 0 1-.332-1.358h-.016c-.08.462-.19.914-.332 1.358l-.57 1.823h-.854l-1.217-4.2h.946l.468 1.996c.113.472.208.92.282 1.347h.016c.069-.35.181-.798.342-1.338l.587-2.004h.747l.564 1.96c.134.479.247.938.332 1.382h.024c.064-.432.157-.891.283-1.382l.501-1.96h.903zM48.635 6.427h-.92V4.022c0-.741-.276-1.111-.834-1.111a.821.821 0 0 0-.662.305 1.084 1.084 0 0 0-.258.719v2.492h-.92V3.428c0-.368-.01-.77-.032-1.201h.809l.043.656h.024a1.36 1.36 0 0 1 .479-.507c.247-.156.525-.233.833-.233.387 0 .707.126.963.378.316.31.475.776.475 1.391v2.515z" fill="#FEFEFE"/>
        <mask id="ki1xv0eehd" fill="#fff">
            <use xlink:href="#pyac160poc"/>
        </mask>
        <path fill="#FEFEFE" mask="url(#ki1xv0eehd)" d="M50.255 6.427h.918V.302h-.918zM55.634 4.322c0-.388-.083-.719-.247-.994-.192-.337-.467-.504-.825-.504-.37 0-.652.167-.842.504-.166.275-.249.613-.249 1.012 0 .387.083.718.25.996.196.336.475.503.832.503.351 0 .626-.17.827-.512.17-.283.254-.617.254-1.005m.956-.03c0 .645-.184 1.175-.547 1.59-.38.427-.885.639-1.515.639-.609 0-1.091-.203-1.45-.614-.362-.408-.542-.924-.542-1.546 0-.651.184-1.182.557-1.598.372-.414.873-.62 1.502-.62.608 0 1.096.203 1.466.611.35.398.529.91.529 1.538M60.087 4.983v-.647c-1.015-.018-1.523.265-1.523.845 0 .22.057.384.178.495a.637.637 0 0 0 .45.163.92.92 0 0 0 .561-.195.803.803 0 0 0 .334-.661m.956 1.443h-.828l-.07-.484h-.024c-.282.386-.686.579-1.21.579-.39 0-.705-.126-.944-.38a1.201 1.201 0 0 1-.324-.855c0-.514.21-.905.634-1.175.423-.27 1.02-.405 1.785-.398v-.079c0-.552-.286-.827-.859-.827a1.89 1.89 0 0 0-1.078.312l-.187-.614c.386-.244.86-.363 1.42-.363 1.081 0 1.624.579 1.624 1.736v1.547c0 .419.019.754.06 1.001M65.316 4.656v-.7c0-.123-.009-.219-.028-.294a1.047 1.047 0 0 0-.331-.567.892.892 0 0 0-.614-.228.944.944 0 0 0-.81.414c-.196.277-.295.631-.295 1.063 0 .415.094.752.282 1.01a.94.94 0 0 0 .806.415c.3 0 .542-.115.726-.343.176-.216.264-.472.264-.77m.953 1.771h-.816l-.044-.675h-.025c-.26.512-.704.77-1.33.77-.5 0-.912-.2-1.24-.597-.33-.398-.495-.913-.495-1.546 0-.68.178-1.23.536-1.65.345-.391.77-.588 1.277-.588.557 0 .944.191 1.165.572h.02V.302h.919v4.992c0 .41.01.786.033 1.133M73.184 4.322c0-.388-.083-.719-.249-.994-.192-.337-.467-.504-.824-.504-.37 0-.65.167-.844.504-.164.275-.247.613-.247 1.012 0 .387.083.718.247.996.199.336.475.503.835.503.35 0 .626-.17.826-.512.17-.283.256-.617.256-1.005m.952-.03c0 .645-.181 1.175-.546 1.59-.378.427-.883.639-1.516.639-.605 0-1.09-.203-1.45-.614-.36-.408-.541-.924-.541-1.546 0-.651.185-1.182.557-1.598.373-.414.872-.62 1.503-.62.609 0 1.096.203 1.464.611.353.398.53.91.53 1.538M79.084 6.427h-.92V4.022c0-.741-.277-1.111-.835-1.111a.822.822 0 0 0-.664.305c-.169.203-.255.443-.255.719v2.492h-.92V3.428c0-.368-.01-.77-.035-1.201h.81l.04.656h.027a1.36 1.36 0 0 1 .479-.507c.248-.156.527-.233.833-.233.387 0 .707.126.962.378.319.31.478.776.478 1.391v2.515zM85.273 2.928H84.26v2.038c0 .519.182.777.538.777.162 0 .299-.013.41-.043l.024.709a2.08 2.08 0 0 1-.716.103c-.363 0-.646-.114-.852-.336-.204-.225-.304-.602-.304-1.131V2.928h-.607v-.701h.607v-.768l.9-.276v1.044h1.013v.701zM90.145 6.427h-.921V4.04c0-.754-.277-1.13-.833-1.13-.427 0-.72.218-.879.655a1.174 1.174 0 0 0-.043.335v2.527h-.918V.3h.918v2.53h.018c.29-.46.705-.688 1.244-.688.379 0 .695.126.946.378.31.318.468.788.468 1.409v2.497zM94.29 3.887a1.258 1.258 0 0 0-.18-.717c-.156-.26-.402-.39-.73-.39a.866.866 0 0 0-.731.381 1.395 1.395 0 0 0-.274.726h1.916zm.879.242c0 .165-.012.307-.037.423h-2.757c.01.413.144.73.4.95.233.195.536.293.904.293.408 0 .78-.065 1.115-.198l.145.648c-.393.172-.854.258-1.39.258-.641 0-1.146-.19-1.51-.573-.367-.384-.549-.898-.549-1.543 0-.633.17-1.16.512-1.58.356-.45.837-.674 1.447-.674.594 0 1.046.225 1.352.674.245.357.368.798.368 1.322z"/>
    </g>
</svg>
