<svg width="96" height="24" viewBox="0 0 96 24" xmlns="http://www.w3.org/2000/svg" xmlns:xlink="http://www.w3.org/1999/xlink">
    <defs>
        <path id="ou2jrxoqka" d="M0 24h96V0H0z"/>
    </defs>
    <g fill="none" fill-rule="evenodd">
        <path d="M31.065 5.64c-.463.486-1.066.728-1.81.728-.71 0-1.314-.245-1.81-.738-.498-.492-.745-1.105-.745-1.833s.247-1.339.745-1.831a2.474 2.474 0 0 1 1.81-.738c.355 0 .692.069 1.012.205.32.139.577.321.77.55l-.432.432c-.327-.388-.776-.582-1.35-.582-.516 0-.965.181-1.342.546-.38.365-.568.838-.568 1.418 0 .582.189 1.055.568 1.42.377.365.826.546 1.343.546.55 0 1.01-.183 1.375-.55.239-.239.376-.57.413-.996h-1.788v-.591h2.386c.023.13.036.252.036.371 0 .687-.206 1.236-.613 1.643z" fill="#FEFEFE"/>
        <path d="M31.678 3.997h-.083c-.001.672-.197 1.194-.588 1.585-.449.47-1.026.704-1.751.704-.692 0-1.27-.238-1.753-.714-.483-.48-.72-1.064-.72-1.775 0-.71.237-1.294.72-1.773a2.388 2.388 0 0 1 1.753-.714c.342 0 .669.066.977.199.312.134.558.308.74.528l.063-.054-.058-.058-.431.433.058.057.061-.052c-.34-.409-.819-.614-1.41-.612a1.95 1.95 0 0 0-1.401.568c-.394.38-.593.879-.593 1.478 0 .6.199 1.1.593 1.48.391.377.864.57 1.4.57.568 0 1.053-.193 1.435-.575.254-.256.4-.608.437-1.047l.006-.09h-1.795v-.427h2.304v-.082l-.08.014c.02.125.033.243.033.357h.165a2.15 2.15 0 0 0-.037-.386l-.013-.066h-2.537v.753h1.871v-.081l-.08-.006c-.038.411-.17.723-.391.944-.351.352-.786.525-1.317.527-.5-.002-.921-.173-1.288-.523-.362-.35-.541-.797-.541-1.362 0-.564.18-1.01.541-1.36a1.79 1.79 0 0 1 1.288-.523c.557.002.974.186 1.286.556l.056.067.498-.495.053-.054-.05-.058a2.12 2.12 0 0 0-.801-.572 2.61 2.61 0 0 0-1.042-.213 2.547 2.547 0 0 0-1.868.764c-.514.506-.772 1.142-.772 1.888 0 .748.258 1.384.772 1.891a2.552 2.552 0 0 0 1.868.763c.76.001 1.39-.252 1.869-.755l-.06-.056.058.058c.425-.425.637-.998.637-1.7h-.082zM35.458 1.942h-2.243v1.56h2.021v.59h-2.02v1.563h2.242v.604h-2.873V1.338h2.873z" fill="#FEFEFE"/>
        <path fill="#FEFEFE" d="M35.458 1.942v-.083h-2.325v1.725h2.023v.426h-2.023v1.727h2.242v.44h-2.709V1.42h2.71v.522h.082v-.083.083h.082v-.687h-3.037v5.086h3.037v-.769h-2.242V4.175h2.02V3.42h-2.02V2.024h2.242v-.082zM38.126 6.258h-.635V1.941h-1.373v-.604H39.5v.604h-1.375z"/>
        <path fill="#FEFEFE" d="M38.126 6.258v-.082h-.553V1.859H36.2v-.44h3.22v.44h-1.377v4.4h.083v-.083.082h.082V2.024h1.373v-.77h-3.546v.77h1.377V6.34h.796v-.083z"/>
        <mask id="bf8s3jw4pb" fill="#fff">
            <use xlink:href="#ou2jrxoqka"/>
        </mask>
        <path fill="#FEFEFE" mask="url(#bf8s3jw4pb)" d="M41.948 6.26h.633V1.337h-.633z"/>
        <path fill="#FEFEFE" mask="url(#bf8s3jw4pb)" d="M41.949 6.258h.082V1.42h.467v4.756h-.55v.082h.083-.082v.083h.714V1.255h-.797V6.34h.083zM45.387 6.258h-.634V1.941h-1.375v-.604h3.383v.604h-1.374z"/>
        <path fill="#FEFEFE" mask="url(#bf8s3jw4pb)" d="M45.387 6.258v-.082h-.551V1.859H43.46v-.44h3.218v.44h-1.375v4.4h.083v-.083.082h.082V2.024h1.373v-.77h-3.546v.77h1.376V6.34h.797v-.083zM50.022 5.21c.364.37.811.553 1.338.553.526 0 .974-.183 1.336-.553.367-.37.55-.84.55-1.411 0-.574-.183-1.044-.55-1.413a1.797 1.797 0 0 0-1.336-.553c-.527 0-.974.183-1.338.553-.363.37-.546.84-.546 1.413 0 .571.183 1.041.546 1.411m3.142.412c-.483.498-1.087.746-1.804.746-.72 0-1.32-.248-1.805-.746-.483-.496-.724-1.105-.724-1.823 0-.72.241-1.33.724-1.825.485-.5 1.084-.746 1.805-.746.716 0 1.317.25 1.8.747.486.501.728 1.108.728 1.824 0 .718-.24 1.327-.724 1.823"/>
        <path d="m50.022 5.21-.058.058c.378.383.848.579 1.396.579.546 0 1.018-.196 1.396-.579.38-.384.572-.88.572-1.47s-.193-1.086-.572-1.47a1.891 1.891 0 0 0-1.396-.577 1.889 1.889 0 0 0-1.396.576c-.38.385-.57.88-.57 1.472 0 .59.19 1.085.57 1.47l.118-.117c-.35-.352-.524-.8-.524-1.353 0-.556.175-1.003.524-1.355h-.002a1.72 1.72 0 0 1 1.28-.528c.509 0 .929.172 1.28.528.347.353.52.8.523 1.355-.003.554-.176 1-.524 1.353-.35.355-.77.53-1.28.53a1.728 1.728 0 0 1-1.279-.53l-.058.058zm3.142.412-.058-.056c-.47.482-1.045.72-1.746.72-.703 0-1.277-.238-1.745-.72l-.003-.004.003.004c-.47-.483-.703-1.066-.703-1.767 0-.703.233-1.286.703-1.769.468-.483 1.042-.72 1.745-.72.696 0 1.27.239 1.743.723.47.487.704 1.068.704 1.766 0 .7-.232 1.284-.7 1.767l.116.114c.499-.51.75-1.145.748-1.881a2.593 2.593 0 0 0-.752-1.88c-.497-.514-1.126-.775-1.86-.774-.74-.001-1.366.259-1.862.77-.5.513-.75 1.146-.748 1.884-.002.736.249 1.37.748 1.881l.003.002-.003-.002c.496.512 1.123.772 1.863.77.737.002 1.367-.258 1.863-.77l-.059-.058zM54.777 6.258v-4.92h.773l2.39 3.827h.028l-.027-.948v-2.88h.633v4.921h-.662L55.41 2.245h-.03l.03.948v3.065z" fill="#FEFEFE" mask="url(#bf8s3jw4pb)"/>
        <path fill="#FEFEFE" mask="url(#bf8s3jw4pb)" d="M54.777 6.258h.083V1.42h.641l2.393 3.827h.157l-.028-1.032V1.42h.469v4.756h-.532l-2.506-4.014H55.3l.03 1.033v2.98h-.552v.083h.083-.083v.083h.714V3.19l-.027-.948-.082.002v.08h.029v-.08l-.07.042 2.527 4.054h.787V1.255h-.797v2.963l.028.95.082-.003v-.08h-.027v.08l.07-.042-2.418-3.868h-.898V6.34h.082zM80.51 20.202h1.53V9.948h-1.53v10.254zm13.789-6.56-1.755 4.446h-.053l-1.82-4.446h-1.652l2.734 6.213-1.56 3.456h1.598L96 13.641h-1.701zm-9.885 4.525c0-.791.873-1.095 1.623-1.095.673 0 .991.145 1.4.342a1.855 1.855 0 0 1-1.82 1.622c-.505 0-1.203-.249-1.203-.869zm-1.344-3.18 1.357.567c.291-.567.83-.753 1.4-.753.791 0 1.596.477 1.61 1.321v.105a3.392 3.392 0 0 0-1.598-.395c-1.465 0-2.955.804-2.955 2.308 0 1.372 1.2 2.256 2.547 2.256 1.029 0 1.597-.462 1.953-1.003h.053v.791h1.479v-3.93c0-1.82-1.36-2.837-3.115-2.837-1.109 0-2.257.49-2.73 1.57zm-8.908-.097v-3.514h2.178c1.142 0 1.793.946 1.793 1.757 0 .795-.651 1.757-1.793 1.757h-2.178zm-1.53-4.942v10.254h1.53v-3.886h2.137c1.698 0 3.364-1.227 3.364-3.183 0-1.957-1.666-3.185-3.364-3.185h-3.667zm-18.28 6.99c0-1.227.886-2.127 1.943-2.127 1.045 0 1.864.9 1.864 2.127 0 1.216-.819 2.101-1.864 2.101-1.057 0-1.942-.885-1.942-2.1zm3.7-2.721h-.051c-.344-.41-1.004-.78-1.837-.78-1.745 0-3.344 1.532-3.344 3.501 0 1.956 1.599 3.476 3.344 3.476.833 0 1.493-.37 1.837-.793h.051v.5c0 1.336-.712 2.05-1.862 2.05-.939 0-1.522-.675-1.758-1.242l-1.335.555c.382.924 1.401 2.06 3.093 2.06 1.798 0 3.318-1.057 3.318-3.633v-6.263h-1.456v.569zm2.514 5.985H62.1V9.948h-1.534v10.254zm3.794-3.383c-.042-1.347 1.044-2.034 1.822-2.034.61 0 1.125.302 1.294.74l-3.116 1.294zm4.758-1.163c-.291-.779-1.178-2.22-2.99-2.22-1.796 0-3.29 1.414-3.29 3.49 0 1.953 1.48 3.488 3.464 3.488 1.6 0 2.525-.977 2.906-1.546l-1.189-.795c-.394.583-.937.966-1.717.966s-1.335-.357-1.693-1.056l4.666-1.93-.157-.397zm-37.175-1.149v1.48h3.543c-.107.832-.383 1.44-.807 1.864-.515.513-1.323 1.082-2.736 1.082-2.182 0-3.886-1.758-3.886-3.936 0-2.182 1.704-3.94 3.886-3.94 1.176 0 2.037.464 2.67 1.058l1.045-1.044c-.887-.845-2.061-1.493-3.715-1.493-2.988 0-5.498 2.43-5.498 5.419 0 2.986 2.51 5.417 5.498 5.417 1.612 0 2.828-.528 3.78-1.52.978-.979 1.283-2.352 1.283-3.463 0-.344-.028-.66-.08-.924h-4.983zm7.12 2.418c0-1.255.914-2.114 1.97-2.114 1.057 0 1.97.86 1.97 2.114 0 1.242-.913 2.114-1.97 2.114-1.056 0-1.97-.872-1.97-2.114zm-1.534 0c0 2.008 1.574 3.489 3.505 3.489 1.929 0 3.502-1.481 3.502-3.489 0-2.022-1.573-3.488-3.502-3.488-1.931 0-3.505 1.466-3.505 3.488zm9.175 0c0-1.255.913-2.114 1.971-2.114 1.057 0 1.967.86 1.967 2.114 0 1.242-.91 2.114-1.967 2.114-1.058 0-1.97-.872-1.97-2.114zm-1.531 0c0 2.008 1.572 3.489 3.502 3.489 1.93 0 3.501-1.481 3.501-3.489 0-2.022-1.572-3.488-3.5-3.488-1.931 0-3.503 1.466-3.503 3.488z"/>
        <g mask="url(#bf8s3jw4pb)" fill="#FFF" fill-rule="nonzero">
            <path d="M3.99 1.836a2.746 2.746 0 0 0-2.645.006l9.72 8.826 3.266-3.214L3.989 1.836zM.373 2.745A2.419 2.419 0 0 0 0 4.028v15.94c0 .45.124.877.348 1.251l9.775-9.621-9.75-8.853zM18.66 9.806l-3.115-1.692-3.5 3.444 4.29 3.894 2.326-1.264C19.5 13.732 20 12.913 20 11.997c-.001-.916-.501-1.735-1.34-2.19zM11.103 12.487 1.3 22.135a2.78 2.78 0 0 0 1.362.365c.453 0 .909-.113 1.326-.34l11.116-6.038-4.002-3.635z"/>
        </g>
    </g>
</svg>
