<svg width="16" height="16" viewBox="0 0 16 16" xmlns="http://www.w3.org/2000/svg">
    <g fill="#007AFF" fill-rule="nonzero" stroke="#007AFF" stroke-width=".4">
        <path d="M14.75 14.2H1.25c-.414 0-.75.306-.75.684 0 .378.336.684.75.684h13.5c.414 0 .75-.306.75-.684 0-.378-.336-.684-.75-.684zM7.25 1.084V9.33L4.782 7.072a.805.805 0 0 0-1.064 0 .645.645 0 0 0 0 .972l3.75 3.42c.14.13.332.203.532.203s.392-.073.533-.202l3.75-3.421a.647.647 0 0 0 .194-.664.723.723 0 0 0-.532-.486.803.803 0 0 0-.728.178L8.75 9.33V1.084C8.75.706 8.414.4 8 .4s-.75.306-.75.684z"/>
    </g>
</svg>
