<svg width="22" height="22" viewBox="0 0 22 22" xmlns="http://www.w3.org/2000/svg">
    <g fill="#FFF" fill-rule="nonzero" stroke="#FFF" stroke-width=".539">
        <path d="M20.281 19.525H1.72c-.57 0-1.032.421-1.032.94 0 .52.462.942 1.032.942H20.28c.57 0 1.032-.422 1.032-.941 0-.52-.462-.941-1.032-.941zM9.969 1.49V12.83L6.576 9.724a1.107 1.107 0 0 0-1.464 0 .887.887 0 0 0 0 1.336l5.156 4.704c.193.178.457.278.732.278.275 0 .539-.1.732-.278l5.156-4.704a.89.89 0 0 0 .268-.912.994.994 0 0 0-.732-.668 1.105 1.105 0 0 0-1 .244l-3.393 3.105V1.49C12.031.97 11.57.55 11 .55c-.57 0-1.031.421-1.031.94z"/>
    </g>
</svg>
