<svg width="225" height="30" viewBox="0 0 225 30" xmlns="http://www.w3.org/2000/svg">
    <g fill="#FFF" fill-rule="nonzero">
        <path d="M14.924 29.848c5.248 0 9.84-2.583 12.3-6.642l-5.658-3.28c-1.23 2.214-3.731 3.526-6.642 3.526-5.084 0-8.364-3.403-8.364-8.528s3.28-8.528 8.364-8.528c2.911 0 5.371 1.312 6.642 3.526l5.658-3.28C24.723 2.583 20.131 0 14.924 0 6.273 0 0 6.478 0 14.924s6.273 14.924 14.924 14.924zM50.54 29.274h7.176L47.958.574h-8.364l-9.758 28.7h7.175l1.435-4.51h10.66l1.435 4.51zm-10.126-10.66 3.362-10.537 3.362 10.537h-6.724zM77.26 29.274h7.052l-6.109-10.537c3.157-1.599 5.289-4.797 5.289-8.323a9.816 9.816 0 0 0-9.84-9.84h-11.48v28.7h6.56v-9.43h3.116l5.412 9.43zm-8.528-22.55h4.92c1.804 0 3.28 1.599 3.28 3.69s-1.476 3.69-3.28 3.69h-4.92v-7.38zM118.084.574h-6.56l-7.79 12.751L95.944.574h-6.56v28.7h6.56V12.587l7.42 12.177h.739l7.42-12.177v16.687h6.56zM131.56 22.96v-5.084h10.25v-6.232h-10.25V6.888h11.275V.574H125v28.7h18.04V22.96zM163.815 29.274h7.052l-6.11-10.537c3.158-1.599 5.29-4.797 5.29-8.323a9.816 9.816 0 0 0-9.84-9.84h-11.48v28.7h6.56v-9.43h3.116l5.412 9.43zm-8.528-22.55h4.92c1.804 0 3.28 1.599 3.28 3.69s-1.476 3.69-3.28 3.69h-4.92v-7.38zM189.222 29.848c5.248 0 9.84-2.583 12.3-6.642l-5.658-3.28c-1.23 2.214-3.73 3.526-6.642 3.526-5.084 0-8.364-3.403-8.364-8.528s3.28-8.528 8.364-8.528c2.911 0 5.371 1.312 6.642 3.526l5.658-3.28C199.022 2.583 194.43 0 189.222 0c-8.65 0-14.924 6.478-14.924 14.924s6.273 14.924 14.924 14.924zM213.154 22.96v-5.084h10.25v-6.232h-10.25V6.888h11.275V.574h-17.835v28.7h18.04V22.96z"/>
    </g>
</svg>
