<svg width="122" height="30" viewBox="0 0 122 30" xmlns="http://www.w3.org/2000/svg" xmlns:xlink="http://www.w3.org/1999/xlink">
    <defs>
        <path id="hqnqz3vkza" d="M0 29.24h122V0H0z"/>
        <path d="m0 .414 13.085 12.944 4.433-4.387L2.183.348C1.763.113 1.363 0 1.007 0A1.35 1.35 0 0 0 0 .414" id="1qs31g3rec"/>
        <path d="M0 4.29v.306l4.334 4.29.1-.057L9.57 5.943c1.467-.827 1.467-2.174 0-3.001L4.336 0 0 4.29z" id="mf5yrhapze"/>
        <path d="M0 12.946c.484.508 1.285.57 2.183.066l15.335-8.625L13.085 0 0 12.946z" id="qcxnogc0hg"/>
    </defs>
    <g transform="translate(0 .5)" fill="none" fill-rule="evenodd">
        <path d="M39.635 3.972c0 .87-.262 1.566-.784 2.082-.593.616-1.365.923-2.317.923-.91 0-1.684-.31-2.319-.935-.637-.625-.954-1.4-.954-2.324 0-.923.317-1.697.954-2.321.635-.625 1.409-.936 2.32-.936.452 0 .885.088 1.294.26.41.176.739.408.985.698l-.552.547c-.418-.491-.993-.737-1.728-.737a2.4 2.4 0 0 0-1.719.692c-.486.463-.728 1.062-.728 1.797 0 .737.242 1.337.728 1.8a2.4 2.4 0 0 0 1.72.692c.705 0 1.292-.232 1.76-.696.306-.303.482-.723.53-1.263h-2.29V3.5h3.055c.029.164.045.32.045.471" fill="#000"/>
        <path d="M39.635 3.972h-.105c-.002.852-.252 1.513-.753 2.008l-.002.002c-.573.594-1.312.89-2.24.89-.886 0-1.627-.3-2.245-.904-.619-.608-.923-1.349-.923-2.25 0-.9.304-1.64.923-2.247.618-.606 1.359-.905 2.244-.905.439 0 .857.084 1.252.251.4.17.714.391.947.67l.081-.068-.074-.073-.553.548.075.072.078-.066c-.434-.518-1.049-.778-1.806-.775a2.511 2.511 0 0 0-1.793.72c-.505.481-.76 1.114-.76 1.873 0 .762.255 1.394.76 1.875.5.48 1.106.723 1.793.723.726 0 1.347-.244 1.837-.729.325-.323.511-.77.559-1.326l.008-.115H36.64v-.54h2.95V3.5l-.104.019c.027.157.044.307.044.452h.21c0-.158-.016-.321-.047-.49l-.016-.083h-3.248v.954h2.395V4.25l-.103-.009c-.048.522-.217.917-.5 1.198-.45.446-1.006.665-1.687.667a2.312 2.312 0 0 1-1.649-.663c-.463-.444-.693-1.01-.693-1.726 0-.714.23-1.28.693-1.723a2.304 2.304 0 0 1 1.65-.664c.713.002 1.247.236 1.646.705l.072.085.638-.628.068-.068-.064-.073c-.259-.305-.604-.545-1.026-.725a3.371 3.371 0 0 0-1.335-.27c-.933-.002-1.74.323-2.391.968-.658.64-.99 1.447-.99 2.393 0 .948.332 1.755.99 2.397.651.643 1.458.969 2.391.967.975.002 1.78-.32 2.394-.956l-.077-.072.075.074c.544-.539.815-1.265.815-2.156h-.106zM44.476 1.366h-2.872v1.978h2.589v.75h-2.589v1.979h2.872v.765h-3.678V.601h3.678z" fill="#000"/>
        <path fill="#000" d="M44.476 1.366v-.104h-2.977v2.186h2.59v.54H41.5v2.19h2.871v.556h-3.469V.705h3.47v.661h.105v-.104.104h.105v-.87h-3.889v6.447h3.89v-.975H41.71v-1.77h2.588v-.959H41.71V1.471h2.871v-.105zM47.892 6.838h-.813V1.366h-1.758V.6h4.332v.766h-1.76z"/>
        <path fill="#000" d="M47.892 6.838v-.104h-.707V1.26h-1.759V.705h4.123v.556h-1.762v5.577h.105v-.104.104h.106V1.47h1.758V.496h-4.54v.974h1.762v5.472h1.02v-.104z"/>
        <mask id="6nk4zkrx4b" fill="#fff">
            <use xlink:href="#hqnqz3vkza"/>
        </mask>
        <path fill="#000" mask="url(#6nk4zkrx4b)" d="M52.787 6.84h.81V.6h-.81z"/>
        <path fill="#000" mask="url(#6nk4zkrx4b)" d="M52.788 6.838h.105V.705h.598v6.029h-.703v.104h.105-.105v.104h.914V.496h-1.02v6.446h.106zM57.19 6.838h-.811V1.366h-1.76V.6h4.331v.766h-1.76z"/>
        <path fill="#000" mask="url(#6nk4zkrx4b)" d="M57.19 6.838v-.104h-.706V1.26h-1.76V.705h4.12v.556h-1.76v5.577h.106v-.104.104h.105V1.47h1.759V.496h-4.541v.974h1.762v5.472h1.02v-.104zM63.125 5.51c.466.468 1.039.7 1.713.7.675 0 1.248-.232 1.711-.7.47-.47.704-1.065.704-1.79 0-.726-.234-1.322-.704-1.79-.463-.47-1.036-.701-1.71-.701-.675 0-1.248.231-1.714.7-.465.469-.699 1.065-.699 1.791 0 .725.234 1.32.7 1.79m4.023.522c-.618.63-1.392.945-2.31.945-.923 0-1.69-.315-2.311-.945-.619-.629-.927-1.4-.927-2.312 0-.913.308-1.684.927-2.313.62-.633 1.388-.946 2.31-.946.917 0 1.686.318 2.305.948.623.635.933 1.404.933 2.311 0 .911-.308 1.683-.927 2.312"/>
        <path d="m63.125 5.51-.074.073a2.44 2.44 0 0 0 1.787.733c.7 0 1.304-.248 1.788-.733.486-.487.732-1.115.732-1.863 0-.749-.246-1.377-.732-1.865a2.435 2.435 0 0 0-1.788-.73 2.431 2.431 0 0 0-1.787.73c-.486.488-.73 1.116-.73 1.865 0 .748.244 1.376.73 1.863l.151-.147c-.447-.446-.67-1.014-.67-1.716 0-.704.223-1.271.67-1.717H63.2c.45-.45.989-.67 1.638-.67.652 0 1.19.22 1.639.67.445.448.666 1.013.67 1.717-.004.702-.225 1.267-.67 1.716-.449.45-.987.671-1.639.671-.65-.002-1.187-.22-1.638-.671l-.075.074zm4.024.522-.074-.072c-.602.612-1.339.913-2.237.913-.9 0-1.634-.301-2.234-.913l-.004-.004.004.004c-.602-.612-.9-1.351-.9-2.24 0-.89.298-1.63.9-2.241.6-.612 1.334-.913 2.234-.913.892 0 1.626.303 2.233.917.602.616.902 1.353.902 2.237 0 .889-.298 1.628-.898 2.24l.149.145c.639-.647.96-1.451.958-2.385.002-.931-.321-1.732-.962-2.383-.638-.65-1.442-.982-2.382-.98-.947-.002-1.75.327-2.385.976-.64.65-.96 1.452-.958 2.387-.002.934.319 1.738.958 2.385l.004.002-.004-.002c.635.65 1.438.979 2.385.977.944.002 1.75-.328 2.386-.977l-.075-.073zM69.215 6.838V.6h.988l3.062 4.852h.035l-.035-1.202V.6h.811v6.238h-.848L70.025 1.75h-.037l.037 1.201v3.886z" fill="#000" mask="url(#6nk4zkrx4b)"/>
        <path fill="#000" mask="url(#6nk4zkrx4b)" d="M69.215 6.838h.105V.705h.821l3.064 4.851h.2l-.034-1.308V.705h.6v6.029h-.681l-3.209-5.088h-.198l.037 1.308v3.78h-.705v.104h.105-.105v.104h.914V2.95l-.035-1.201-.106.002v.102h.037v-.102l-.088.053 3.235 5.138h1.008V.496h-1.02v3.756l.035 1.204.105-.004V5.35h-.035v.102l.09-.053L70.258.496h-1.15v6.446h.106zM102.164 24.512h1.96V11.515h-1.96v12.997zm17.658-8.315-2.247 5.635h-.068l-2.332-5.635h-2.114l3.5 7.875-1.996 4.38h2.046L122 16.198h-2.178zm-11.118 6.837c-.646 0-1.54-.315-1.54-1.101 0-1.003 1.118-1.388 2.078-1.388.862 0 1.27.184 1.793.434a2.368 2.368 0 0 1-2.331 2.055zm.236-7.122c-1.42 0-2.89.62-3.496 1.99l1.737.718c.373-.718 1.064-.954 1.792-.954 1.014 0 2.044.604 2.062 1.675v.133c-.355-.2-1.115-.501-2.046-.501-1.876 0-3.783 1.019-3.783 2.925 0 1.74 1.537 2.86 3.26 2.86 1.318 0 2.046-.586 2.501-1.272h.068v1.004h1.893v-4.983c0-2.307-1.742-3.595-3.988-3.595zM96.825 17.78h-2.789v-4.455h2.789c1.463 0 2.296 1.2 2.296 2.228 0 1.007-.833 2.227-2.296 2.227zm-.052-6.264h-4.696v12.997h1.96v-4.925h2.736c2.175 0 4.307-1.556 4.307-4.035 0-2.481-2.132-4.037-4.307-4.037zM71.158 23.038c-1.353 0-2.487-1.122-2.487-2.663 0-1.556 1.134-2.696 2.487-2.696 1.338 0 2.387 1.14 2.387 2.696 0 1.541-1.049 2.663-2.387 2.663zm2.25-6.113h-.066c-.44-.52-1.285-.988-2.352-.988-2.234 0-4.282 1.942-4.282 4.438 0 2.479 2.048 4.405 4.282 4.405 1.067 0 1.911-.469 2.352-1.005h.066v.635c0 1.693-.912 2.598-2.385 2.598-1.202 0-1.949-.856-2.25-1.575l-1.71.705c.489 1.17 1.794 2.61 3.96 2.61 2.303 0 4.25-1.34 4.25-4.604v-7.94h-1.865v.721zm3.22 7.587h1.963V11.515h-1.964v12.997zm4.857-4.289c-.054-1.707 1.336-2.577 2.333-2.577.78 0 1.44.383 1.658.938l-3.991 1.64zm6.092-1.474c-.372-.986-1.508-2.812-3.827-2.812-2.3 0-4.214 1.79-4.214 4.421 0 2.478 1.895 4.422 4.436 4.422 2.048 0 3.233-1.238 3.721-1.959l-1.522-1.007c-.505.739-1.2 1.224-2.2 1.224-.999 0-1.708-.452-2.168-1.339l5.975-2.446-.2-.504zm-47.602-1.455v1.875h4.537c-.137 1.054-.49 1.826-1.033 2.362-.66.651-1.694 1.372-3.504 1.372-2.793 0-4.976-2.227-4.976-4.989 0-2.766 2.183-4.993 4.976-4.993 1.506 0 2.608.588 3.42 1.341l1.338-1.324c-1.136-1.071-2.64-1.892-4.758-1.892-3.825 0-7.04 3.081-7.04 6.868 0 3.785 3.215 6.866 7.04 6.866 2.064 0 3.622-.67 4.84-1.926 1.252-1.24 1.643-2.98 1.643-4.39 0-.435-.035-.836-.101-1.17h-6.382zm11.64 5.744c-1.352 0-2.523-1.105-2.523-2.68 0-1.59 1.17-2.68 2.524-2.68 1.353 0 2.522 1.09 2.522 2.68 0 1.575-1.17 2.68-2.522 2.68zm0-7.101c-2.471 0-4.486 1.858-4.486 4.421 0 2.545 2.015 4.422 4.487 4.422 2.47 0 4.485-1.877 4.485-4.422 0-2.563-2.015-4.421-4.485-4.421zm9.786 7.101c-1.355 0-2.524-1.105-2.524-2.68 0-1.59 1.17-2.68 2.524-2.68 1.353 0 2.518 1.09 2.518 2.68 0 1.575-1.165 2.68-2.518 2.68zm0-7.101c-2.472 0-4.485 1.858-4.485 4.421 0 2.545 2.013 4.422 4.485 4.422 2.47 0 4.483-1.877 4.483-4.422 0-2.563-2.013-4.421-4.483-4.421z"/>
        <path d="M.779 1.17c-.306.319-.484.814-.484 1.459v22.973c0 .645.178 1.14.484 1.46l.076.075 13.007-12.87v-.303L.855 1.094l-.076.075z" fill="#41E7FE" mask="url(#6nk4zkrx4b)"/>
        <g mask="url(#6nk4zkrx4b)">
            <g transform="translate(.777 .757)">
                <mask id="3srqd513id" fill="#fff">
                    <use xlink:href="#1qs31g3rec"/>
                </mask>
                <path d="m0 .414 13.085 12.944 4.433-4.387L2.183.348C1.763.113 1.363 0 1.007 0A1.35 1.35 0 0 0 0 .414" fill="#3DC683" mask="url(#3srqd513id)"/>
            </g>
        </g>
        <g mask="url(#6nk4zkrx4b)">
            <g transform="translate(13.862 9.672)">
                <mask id="v065090dgf" fill="#fff">
                    <use xlink:href="#mf5yrhapze"/>
                </mask>
                <path d="M0 4.29v.306l4.334 4.29.1-.057L9.57 5.943c1.467-.827 1.467-2.174 0-3.001L4.336 0 0 4.29z" fill="#F2BF11" mask="url(#v065090dgf)"/>
            </g>
        </g>
        <g mask="url(#6nk4zkrx4b)">
            <g transform="translate(.777 14.115)">
                <mask id="50vjn8r9lh" fill="#fff">
                    <use xlink:href="#qcxnogc0hg"/>
                </mask>
                <path d="M0 12.946c.484.508 1.285.57 2.183.066l15.335-8.625L13.085 0 0 12.946z" fill="#F2414F" mask="url(#50vjn8r9lh)"/>
            </g>
        </g>
    </g>
</svg>
