<svg width="120" height="32" viewBox="0 0 120 32" xmlns="http://www.w3.org/2000/svg" xmlns:xlink="http://www.w3.org/1999/xlink">
    <defs>
        <path id="k6zsk60hla" d="M0 0h9.357v10.949H0z"/>
        <path id="m6234uk78c" d="M0 32h120V0H0z"/>
    </defs>
    <g fill="none" fill-rule="evenodd">
        <path d="M19.022 14.87c-.032-3.534 2.896-5.252 3.03-5.332-1.658-2.415-4.229-2.745-5.132-2.77-2.158-.225-4.25 1.29-5.35 1.29-1.123 0-2.815-1.267-4.639-1.23-2.348.036-4.546 1.394-5.751 3.5-2.485 4.302-.631 10.619 1.752 14.096 1.19 1.702 2.582 3.604 4.406 3.535 1.782-.074 2.45-1.136 4.602-1.136 2.13 0 2.755 1.136 4.613 1.093 1.914-.03 3.12-1.71 4.27-3.428 1.378-1.949 1.93-3.872 1.95-3.97-.043-.016-3.714-1.414-3.75-5.649M15.511 4.48c.957-1.197 1.614-2.827 1.433-4.48-1.39.06-3.125.958-4.123 2.13-.883 1.034-1.676 2.726-1.471 4.317 1.56.116 3.159-.786 4.161-1.967M40.56 21.633l-1.235-3.808c-.131-.388-.378-1.305-.738-2.747h-.044c-.144.62-.373 1.537-.693 2.747l-1.212 3.808h3.921zm4.266 6.081h-2.49L40.97 23.43h-4.745l-1.299 4.284H32.5l4.7-14.583h2.903l4.723 14.583zM54.532 22.412c0-1.023-.23-1.867-.692-2.531-.508-.693-1.186-1.038-2.037-1.038-.577 0-1.1.192-1.571.572a2.658 2.658 0 0 0-.92 1.506c-.072.287-.11.527-.11.712v1.753c0 .766.237 1.411.704 1.938.47.526 1.08.79 1.832.79.88 0 1.569-.34 2.057-1.017.492-.678.737-1.573.737-2.685m2.385-.086c0 1.79-.486 3.203-1.452 4.243-.869.924-1.945 1.383-3.228 1.383-1.387 0-2.385-.496-2.99-1.493H49.2v5.54h-2.337V20.66c0-1.124-.03-2.276-.09-3.461h2.06l.13 1.666h.043c.782-1.256 1.966-1.884 3.554-1.884 1.242 0 2.28.492 3.107 1.472.832.982 1.249 2.275 1.249 3.874M66.643 22.412c0-1.023-.231-1.867-.693-2.531-.508-.693-1.184-1.038-2.038-1.038-.577 0-1.1.192-1.57.572a2.67 2.67 0 0 0-.921 1.506 3.098 3.098 0 0 0-.108.712v1.753c0 .766.235 1.411.702 1.938.469.526 1.08.79 1.832.79.882 0 1.569-.34 2.057-1.017.493-.678.74-1.573.74-2.685m2.38-.086c0 1.79-.482 3.203-1.45 4.243-.868.924-1.944 1.383-3.23 1.383-1.385 0-2.38-.496-2.988-1.493h-.043v5.54h-2.34V20.66c0-1.124-.03-2.276-.087-3.461h2.057l.132 1.666h.043c.78-1.256 1.964-1.884 3.552-1.884 1.24 0 2.28.492 3.11 1.472.83.982 1.244 2.275 1.244 3.874M82.565 23.626c0 1.24-.43 2.25-1.296 3.028-.951.853-2.275 1.278-3.976 1.278-1.573 0-2.832-.304-3.785-.91l.542-1.948a6.404 6.404 0 0 0 3.381.93c.88 0 1.567-.198 2.06-.595.49-.395.734-.93.734-1.593 0-.593-.2-1.092-.605-1.495-.404-.404-1.076-.782-2.016-1.13-2.556-.951-3.833-2.347-3.833-4.18 0-1.2.448-2.184 1.344-2.95.893-.764 2.085-1.148 3.574-1.148 1.329 0 2.433.23 3.312.69l-.583 1.906c-.823-.447-1.755-.669-2.794-.669-.823 0-1.467.2-1.93.604-.386.36-.583.801-.583 1.321 0 .577.223 1.054.67 1.427.391.35 1.098.72 2.126 1.126 1.255.506 2.18 1.097 2.772 1.775.59.68.886 1.523.886 2.533M90.3 18.952h-2.577v5.106c0 1.3.454 1.947 1.363 1.947.42 0 .767-.035 1.042-.106l.062 1.774c-.46.17-1.067.259-1.819.259-.923 0-1.644-.283-2.167-.844-.519-.563-.78-1.509-.78-2.836v-5.3h-1.536v-1.753h1.536v-1.927l2.299-.69v2.617H90.3v1.753zM99.506 22.446c0-.97-.207-1.802-.626-2.495-.493-.842-1.193-1.26-2.103-1.26-.94 0-1.652.418-2.143 1.26-.42.693-.629 1.539-.629 2.54 0 .97.21 1.8.629 2.493.506.842 1.214 1.26 2.124 1.26.894 0 1.595-.427 2.1-1.282.432-.707.648-1.55.648-2.516m2.429-.076c0 1.617-.463 2.942-1.387 3.982-.968 1.069-2.256 1.602-3.857 1.602-1.547 0-2.776-.514-3.693-1.537-.918-1.025-1.374-2.316-1.374-3.874 0-1.63.47-2.965 1.418-4.001.944-1.04 2.219-1.56 3.822-1.56 1.545 0 2.787.51 3.727 1.538.897.995 1.344 2.277 1.344 3.85M109.54 19.253a4.041 4.041 0 0 0-.74-.065c-.823 0-1.458.31-1.907.93-.387.549-.584 1.243-.584 2.079v5.518h-2.338l.022-7.206c0-1.213-.03-2.316-.088-3.31h2.037l.086 2.01h.063c.249-.69.637-1.247 1.171-1.665.523-.376 1.085-.564 1.692-.564.216 0 .41.015.585.046v2.227z" fill="#000"/>
        <g transform="translate(110.643 16.96)">
            <mask id="wd8qat5d4b" fill="#fff">
                <use xlink:href="#k6zsk60hla"/>
            </mask>
            <path d="M7.128 4.392c.015-.69-.138-1.29-.454-1.796-.406-.65-1.028-.973-1.864-.973-.767 0-1.388.315-1.865.952-.387.507-.62 1.111-.691 1.817h4.874zm2.23.606c0 .42-.026.773-.085 1.06h-7.02c.029 1.04.368 1.832 1.02 2.383.59.488 1.357.734 2.295.734 1.04 0 1.986-.164 2.84-.499l.366 1.623c-.996.434-2.173.65-3.53.65-1.634 0-2.915-.48-3.846-1.44C.467 8.551 0 7.262 0 5.65c0-1.587.432-2.91 1.3-3.961C2.21.563 3.439 0 4.983 0 6.5 0 7.65.563 8.43 1.688c.62.893.929 1.998.929 3.31z" fill="#000" mask="url(#wd8qat5d4b)"/>
        </g>
        <path d="M38.572 4.188c0-.838-.22-1.479-.666-1.926-.443-.446-1.089-.669-1.942-.669-.363 0-.672.026-.927.076v5.357c.142.021.402.032.78.032.88 0 1.555-.244 2.035-.734.48-.488.72-1.2.72-2.136m1.214-.033c0 1.29-.387 2.262-1.163 2.914-.717.602-1.732.904-3.053.904-.652 0-1.214-.03-1.683-.084V.838c.612-.1 1.27-.147 1.982-.147 1.255 0 2.203.272 2.84.818.718.615 1.077 1.498 1.077 2.646M45.02 5.32c0-.478-.102-.885-.31-1.224-.239-.415-.583-.62-1.03-.62-.462 0-.812.205-1.054.62-.205.339-.31.755-.31 1.245 0 .477.105.885.31 1.226.248.414.596.62 1.043.62.439 0 .783-.21 1.031-.631.214-.347.32-.76.32-1.237m1.195-.036c0 .794-.23 1.446-.683 1.957-.475.525-1.106.786-1.895.786-.758 0-1.363-.25-1.815-.756-.452-.502-.674-1.137-.674-1.903 0-.8.229-1.455.696-1.966.464-.51 1.09-.764 1.877-.764.76 0 1.37.25 1.833.753.438.49.66 1.12.66 1.893M54.833 2.742 53.215 7.91h-1.052l-.672-2.245a16.532 16.532 0 0 1-.415-1.67h-.02a12.58 12.58 0 0 1-.414 1.67l-.713 2.245H48.86l-1.52-5.17h1.181l.586 2.457c.14.58.259 1.133.352 1.657h.02c.086-.431.226-.982.427-1.647l.735-2.466h.933l.705 2.412c.168.59.309 1.155.414 1.701h.03c.08-.53.197-1.096.355-1.7l.627-2.413h1.127zM60.794 7.91h-1.15V4.95c0-.912-.345-1.368-1.043-1.368-.34 0-.616.126-.828.376-.213.25-.321.546-.321.885V7.91h-1.15V4.22c0-.454-.013-.948-.041-1.48h1.011l.054.808h.03c.137-.25.335-.458.599-.624a1.933 1.933 0 0 1 1.041-.287c.484 0 .884.156 1.204.466.395.382.594.954.594 1.712V7.91z" fill="#000"/>
        <mask id="75afjmfd4d" fill="#fff">
            <use xlink:href="#m6234uk78c"/>
        </mask>
        <path fill="#000" mask="url(#75afjmfd4d)" d="M62.819 7.91h1.147V.37h-1.147zM69.542 5.32c0-.478-.103-.885-.309-1.224-.24-.415-.583-.62-1.03-.62-.463 0-.815.205-1.053.62-.207.339-.31.755-.31 1.245 0 .477.103.885.31 1.226.247.414.595.62 1.042.62.438 0 .782-.21 1.033-.631.211-.347.317-.76.317-1.237m1.195-.036c0 .794-.229 1.446-.683 1.957-.475.525-1.106.786-1.895.786-.76 0-1.363-.25-1.812-.756-.452-.502-.677-1.137-.677-1.903 0-.8.23-1.455.696-1.966.465-.51 1.091-.764 1.878-.764.76 0 1.37.25 1.832.753.439.49.661 1.12.661 1.893M75.108 6.133v-.797c-1.268-.021-1.903.326-1.903 1.04 0 .27.071.473.222.61.147.133.335.2.562.2.25 0 .486-.08.702-.24a.987.987 0 0 0 .417-.813m1.195 1.776h-1.035l-.086-.596h-.03c-.353.475-.858.713-1.513.713-.488 0-.881-.156-1.18-.469a1.466 1.466 0 0 1-.406-1.05c0-.633.264-1.114.793-1.447.53-.332 1.275-.498 2.232-.49v-.097c0-.68-.359-1.019-1.074-1.019-.51 0-.96.128-1.348.385l-.233-.756c.481-.3 1.073-.447 1.774-.447 1.352 0 2.03.713 2.03 2.137v1.904c0 .516.024.928.076 1.232M81.645 5.73v-.86a1.5 1.5 0 0 0-.034-.363c-.063-.277-.201-.51-.415-.698a1.125 1.125 0 0 0-.767-.28c-.43 0-.767.17-1.014.51-.244.34-.367.776-.367 1.307 0 .512.117.926.352 1.243.249.341.584.512 1.007.512.376 0 .679-.143.908-.423.22-.266.33-.58.33-.948m1.19 2.18h-1.02l-.053-.83h-.033c-.324.63-.879.947-1.661.947-.625 0-1.141-.246-1.551-.734-.413-.49-.618-1.125-.618-1.904 0-.837.222-1.513.67-2.03.431-.482.963-.724 1.596-.724.696 0 1.18.236 1.456.704h.024V.371h1.15v6.145c0 .505.013.967.04 1.394M91.48 5.32c0-.478-.104-.885-.311-1.224-.24-.415-.584-.62-1.03-.62-.463 0-.813.205-1.055.62-.205.339-.31.755-.31 1.245 0 .477.105.885.31 1.226.248.414.594.62 1.043.62.439 0 .783-.21 1.033-.631.212-.347.32-.76.32-1.237m1.19-.036c0 .794-.226 1.446-.682 1.957-.473.525-1.104.786-1.895.786-.756 0-1.364-.25-1.813-.756-.45-.502-.676-1.137-.676-1.903 0-.8.23-1.455.695-1.966.467-.51 1.092-.764 1.88-.764.76 0 1.37.25 1.83.753.441.49.661 1.12.661 1.893M98.854 7.91h-1.149V4.95c0-.912-.346-1.368-1.044-1.368-.341 0-.618.126-.83.376a1.33 1.33 0 0 0-.32.885V7.91h-1.149V4.22c0-.454-.013-.948-.043-1.48h1.011l.052.808h.033c.136-.25.335-.458.598-.624a1.944 1.944 0 0 1 1.042-.287c.484 0 .883.156 1.203.466.398.382.596.954.596 1.712V7.91zM106.592 3.604h-1.266v2.508c0 .638.226.956.672.956.203 0 .373-.015.512-.052l.03.872c-.23.084-.527.127-.895.127-.453 0-.808-.14-1.065-.414-.255-.276-.38-.74-.38-1.392V3.604h-.759V2.74h.759v-.946l1.126-.339v1.285h1.266v.863zM112.681 7.91h-1.151V4.972c0-.928-.346-1.39-1.042-1.39-.533 0-.899.268-1.097.805-.035.115-.054.25-.054.413v3.11h-1.148V.37h1.148v3.114h.021c.363-.567.882-.848 1.556-.848.473 0 .868.156 1.182.466.389.391.585.97.585 1.733V7.91zM117.863 4.784a1.53 1.53 0 0 0-.224-.883c-.197-.32-.504-.479-.914-.479-.374 0-.683.155-.914.468a1.702 1.702 0 0 0-.342.894h2.394zm1.098.298c0 .203-.015.377-.045.52h-3.447c.013.51.18.9.5 1.17.291.24.67.36 1.13.36.51 0 .974-.08 1.393-.244l.182.799c-.49.211-1.068.317-1.738.317-.801 0-1.432-.235-1.888-.706-.458-.472-.685-1.105-.685-1.899 0-.78.212-1.427.64-1.945.445-.552 1.045-.828 1.808-.828.743 0 1.307.276 1.69.828.307.44.46.982.46 1.628z"/>
    </g>
</svg>
